<?xml version="1.0" encoding="UTF-8" standalone="no"?>
<!-- Created with Inkscape (http://www.inkscape.org/) -->

<svg
   width="38.567432mm"
   height="11.6835mm"
   viewBox="0 0 38.567432 11.6835"
   version="1.1"
   id="svg5"
   inkscape:version="1.1 (c68e22c387, 2021-05-23)"
   sodipodi:docname="logo_horizontal_negro.svg"
   xmlns:inkscape="http://www.inkscape.org/namespaces/inkscape"
   xmlns:sodipodi="http://sodipodi.sourceforge.net/DTD/sodipodi-0.dtd"
   xmlns="http://www.w3.org/2000/svg"
   xmlns:svg="http://www.w3.org/2000/svg">
  <sodipodi:namedview
     id="namedview7"
     pagecolor="#ffffff"
     bordercolor="#666666"
     borderopacity="1.0"
     inkscape:pageshadow="2"
     inkscape:pageopacity="0.0"
     inkscape:pagecheckerboard="0"
     inkscape:document-units="mm"
     showgrid="false"
     fit-margin-top="2"
     fit-margin-left="2"
     fit-margin-right="2"
     fit-margin-bottom="2"
     inkscape:zoom="0.70737049"
     inkscape:cx="201.4503"
     inkscape:cy="198.62293"
     inkscape:window-width="1366"
     inkscape:window-height="745"
     inkscape:window-x="-8"
     inkscape:window-y="-8"
     inkscape:window-maximized="1"
     inkscape:current-layer="layer1" />
  <defs
     id="defs2" />
  <g
     inkscape:label="Capa 1"
     inkscape:groupmode="layer"
     id="layer1"
     transform="translate(-15.721073,-96.212777)">
    <g
       fill="#ead017"
       color="#ead017"
       transform="matrix(0.11641667,0,0,0.11641667,17.137578,96.227873)"
       id="g21"
       style="fill:#000000">
      <svg
         width="100"
         height="100"
         x="0.0"
         y="0.0"
         viewBox="0 0 100 100"
         version="1.1"
         id="svg19"
         style="fill:#000000">
        <title
           id="title9" />
        <desc
           id="desc11" />
        <g
           id="g17"
           style="fill:#000000">
          <g
             id="g15"
             style="fill:#000000">
            <path
               d="m 75.9,69.7 -25.5,9.8 v 0 L 25.8,69.7 v 0 V 48 c 0,-0.6 -0.3,-1.2 -0.9,-1.5 L 7.5,36.9 7.4,39.9 51.1,20.2 h -1.4 l 41.9,19.2 v 0 28.7 c 0,0.9 0.7,1.7 1.7,1.7 0.9,0 1.7,-0.7 1.7,-1.7 V 38.4 c 0,-0.7 -0.4,-1.2 -1,-1.5 L 51.1,17.2 C 50.7,17 50.2,17 49.7,17.2 L 6,36.9 c -1.3,0.6 -1.3,2.3 -0.1,3 L 23.4,49.5 22.5,48 v 22.8 c 0,0.7 0.4,1.3 1.1,1.6 l 26.3,10.5 c 0.4,0.2 0.8,0.2 1.2,0 L 78.2,72.4 c 0.6,-0.2 1.1,-0.9 1.1,-1.6 V 48 c 0,-1.2 -1.2,-2 -2.3,-1.6 L 50.5,56.8 v 0 L 36.7,50.9 c -0.8,-0.4 -1.8,0 -2.2,0.9 -0.4,0.9 0,1.8 0.9,2.2 l 14.4,6.1 c 0.4,0.2 0.9,0.2 1.3,0 L 76,50.9"
               id="path13"
               style="fill:#000000" />
          </g>
        </g>
      </svg>
    </g>
    <path
       fill="#000000"
       fill-rule="nonzero"
       d="m 30.44718,104.70038 v -5.294309 h 0.650875 l 1.283229,3.542769 h 0.01852 q -0.0079,-0.12435 -0.02381,-0.27517 -0.01587,-0.15345 -0.0291,-0.3466 -0.01058,-0.19315 -0.02117,-0.43921 -0.0079,-0.24341 -0.0079,-0.55033 v 0 -1.931459 h 0.719667 v 5.294309 h -0.658813 l -1.277937,-3.45016 h -0.02381 q 0.0079,0.14023 0.02381,0.30162 0.01587,0.16404 0.0291,0.38365 0.01323,0.2196 0.02117,0.51329 0.01058,0.29369 0.01058,0.69585 v 0 1.55575 z m 4.66725,0.0476 v 0 q -0.127,0 -0.277813,-0.0212 -0.148166,-0.0212 -0.293687,-0.0847 -0.145521,-0.0661 -0.280458,-0.18521 -0.134938,-0.11906 -0.238125,-0.31485 -0.103188,-0.19579 -0.166688,-0.48154 -0.06085,-0.28575 -0.06085,-0.68262 v 0 -1.8759 q 0,-0.40217 0.0635,-0.68527 0.0635,-0.28311 0.169333,-0.476251 0.103188,-0.195791 0.238125,-0.309562 0.134938,-0.113771 0.283104,-0.174625 0.148167,-0.06085 0.293688,-0.07937 0.145521,-0.01852 0.269875,-0.01852 v 0 q 0.116417,0 0.261937,0.01588 0.142875,0.01852 0.288396,0.07673 0.142875,0.05556 0.280459,0.169333 0.134937,0.113771 0.24077,0.306917 0.105834,0.193148 0.169334,0.481538 0.0635,0.28575 0.0635,0.69321 v 0 1.8759 q 0,0.39158 -0.06615,0.67733 -0.0635,0.2831 -0.169333,0.47889 -0.105834,0.19844 -0.243417,0.3175 -0.137583,0.11906 -0.283104,0.18521 -0.142875,0.0662 -0.28575,0.09 -0.142875,0.0212 -0.256646,0.0212 z m 0,-0.6059 v 0 q 0.116417,0 0.206375,-0.0397 0.08731,-0.0397 0.145521,-0.14023 0.05556,-0.0979 0.08467,-0.26193 0.03175,-0.1614 0.03175,-0.41011 v 0 -2.41035 q 0,-0.254 -0.03175,-0.42333 -0.0291,-0.17198 -0.08467,-0.27517 -0.05821,-0.10319 -0.145521,-0.14817 -0.08996,-0.04233 -0.206375,-0.04233 v 0 q -0.121708,0 -0.211667,0.04233 -0.08996,0.045 -0.148166,0.14817 -0.06085,0.10319 -0.08996,0.27517 -0.0291,0.16933 -0.0291,0.42333 v 0 2.41035 q 0,0.24871 0.0291,0.41011 0.0291,0.16404 0.08996,0.26193 0.05821,0.10054 0.148166,0.14023 0.08996,0.0397 0.211667,0.0397 z m 2.489729,0.55827 -0.764646,-5.294309 h 0.769938 l 0.357187,3.198809 0.03969,0.74613 h 0.07673 l 0.07408,-0.83873 0.5715,-3.106209 h 0.642938 l 0.545041,3.106209 0.06085,0.83873 h 0.08202 l 0.03704,-0.74613 0.325438,-3.198809 h 0.772583 l -0.740833,5.294309 h -0.817556 l -0.436562,-2.54526 -0.134938,-1.10596 h -0.0635 l -0.132292,1.10596 -0.460375,2.54529 z m 5.519208,0 v -5.294309 h 0.801688 V 104.068 h 1.095375 v 0.63235 z m 2.405063,0 v -5.294309 h 1.04775 l 0.508,2.047879 q 0.08202,0.34131 0.127,0.65087 0.04763,0.30692 0.08996,0.57944 v 0 h 0.02646 q 0.04233,-0.27252 0.08996,-0.57944 0.04498,-0.30956 0.127,-0.65087 v 0 l 0.523875,-2.047879 h 1.026583 v 5.294309 h -0.751417 v -1.75154 q 0,-0.40217 0.0079,-0.77523 0.0079,-0.37306 0.02117,-0.68262 0.01058,-0.31221 0.02646,-0.55034 0.01588,-0.24077 0.0291,-0.37835 v 0 h -0.06085 l -0.799042,3.45546 h -0.508 l -0.806979,-3.45546 h -0.05821 q 0.01323,0.13758 0.0291,0.37835 0.01323,0.23813 0.02646,0.55034 0.01323,0.30956 0.02117,0.68262 0.0079,0.37306 0.0079,0.77523 v 0 1.75154 z m 4.267729,-1.07156 v 0 q 0,-0.17198 0.01852,-0.31485 0.02117,-0.14552 0.06085,-0.31221 v 0 h 0.624417 v 0.25664 q 0,0.21432 0.02381,0.37836 0.02646,0.16404 0.08731,0.27781 0.06085,0.11377 0.161395,0.17198 0.100542,0.0556 0.246063,0.0556 v 0 q 0.230187,0 0.351896,-0.12435 0.121708,-0.127 0.121708,-0.36777 v 0 q 0,-0.12436 -0.01852,-0.22754 -0.01587,-0.10584 -0.05821,-0.20638 -0.04233,-0.10319 -0.113771,-0.21696 -0.07144,-0.11112 -0.182562,-0.25135 v 0 l -0.83873,-0.99484 q -0.22225,-0.28575 -0.343958,-0.57679 -0.119062,-0.28839 -0.119062,-0.61648 v 0 q 0,-0.26458 0.08202,-0.48418 0.08202,-0.219607 0.23548,-0.381003 0.156104,-0.15875 0.383645,-0.248709 0.227542,-0.08731 0.515938,-0.08731 v 0 q 0.351896,0 0.584729,0.100542 0.235479,0.09789 0.373063,0.259291 0.140229,0.161396 0.198437,0.359829 0.05556,0.20109 0.05556,0.40217 v 0 q 0,0.17198 -0.02646,0.31485 -0.02381,0.14553 -0.05821,0.3175 v 0 h -0.621771 v -0.25135 q 0,-0.42069 -0.119062,-0.64558 -0.121709,-0.224898 -0.39423,-0.224898 v 0 q -0.227541,0 -0.338666,0.126998 -0.111125,0.12436 -0.111125,0.33602 v 0 q 0,0.11113 0.01587,0.20109 0.01852,0.09 0.05027,0.16668 0.03175,0.0741 0.07937,0.14552 0.04498,0.0714 0.105833,0.14817 v 0 l 0.931333,1.12977 q 0.256646,0.33073 0.391584,0.63765 0.137583,0.30427 0.137583,0.64558 v 0 q 0,0.2831 -0.08996,0.508 -0.08731,0.22754 -0.251355,0.38629 -0.164041,0.1561 -0.396875,0.24341 -0.232833,0.0847 -0.523875,0.0847 v 0 q -0.359833,0 -0.597958,-0.0952 -0.235479,-0.0979 -0.378354,-0.25664 -0.140229,-0.15611 -0.198438,-0.35719 -0.05556,-0.20373 -0.05556,-0.41275 z"
       id="path23"
       style="stroke-width:0.264583;fill:#000000" />
  </g>
</svg>
