<?xml version="1.0" standalone="no"?>
<svg xmlns="http://www.w3.org/2000/svg" viewBox="0 0 83 73" width="83" height="73"><g fill="#ead017" color="#ead017" transform="translate(19.274 0) scale(0.44) "><svg width="100.0" height="100.0" x="0.0" y="0.0" viewBox="0 0 100 100"><title></title><desc></desc><g><g><path d="M75.9,69.7l-25.5,9.8l0,0l-24.6-9.8l0,0l0-21.7c0-0.6-0.3-1.2-0.9-1.5L7.5,36.9    l-0.1,3l43.7-19.7l-1.4,0l41.9,19.2l0,0l0,28.7c0,0.9,0.7,1.7,1.7,1.7c0.9,0,1.7-0.7,1.7-1.7V38.4c0-0.7-0.4-1.2-1-1.5L51.1,17.2    c-0.4-0.2-0.9-0.2-1.4,0L6,36.9c-1.3,0.6-1.3,2.3-0.1,3l17.5,9.6L22.5,48l0,22.8c0,0.7,0.4,1.3,1.1,1.6l26.3,10.5    c0.4,0.2,0.8,0.2,1.2,0l27.1-10.5c0.6-0.2,1.1-0.9,1.1-1.6V48c0-1.2-1.2-2-2.3-1.6L50.5,56.8l0,0l-13.8-5.9    c-0.8-0.4-1.8,0-2.2,0.9s0,1.8,0.9,2.2l14.4,6.1c0.4,0.2,0.9,0.2,1.3,0l24.9-9.2"></path></g></g></svg></g><path fill="#000000" fill-rule="nonzero" d="M0 20.19L0 0.18L2.46 0.18L7.31 13.57L7.38 13.57Q7.35 13.10 7.29 12.53Q7.23 11.95 7.18 11.22Q7.14 10.49 7.10 9.56Q7.07 8.64 7.07 7.48L7.07 7.48L7.07 0.18L9.79 0.18L9.79 20.19L7.30 20.19L2.47 7.15L2.38 7.15Q2.41 7.68 2.47 8.29Q2.53 8.91 2.58 9.74Q2.63 10.57 2.66 11.68Q2.70 12.79 2.70 14.31L2.70 14.31L2.70 20.19L0 20.19ZM17.64 20.37L17.64 20.37Q17.16 20.37 16.59 20.29Q16.03 20.21 15.48 19.97Q14.93 19.72 14.42 19.27Q13.91 18.82 13.52 18.08Q13.13 17.34 12.89 16.26Q12.66 15.18 12.66 13.68L12.66 13.68L12.66 6.59Q12.66 5.07 12.90 4.00Q13.14 2.93 13.54 2.20Q13.93 1.46 14.44 1.03Q14.95 0.60 15.51 0.37Q16.07 0.14 16.62 0.07Q17.17 0 17.64 0L17.64 0Q18.08 0 18.63 0.06Q19.17 0.13 19.72 0.35Q20.26 0.56 20.78 0.99Q21.29 1.42 21.69 2.15Q22.09 2.88 22.33 3.97Q22.57 5.05 22.57 6.59L22.57 6.59L22.57 13.68Q22.57 15.16 22.32 16.24Q22.08 17.31 21.68 18.05Q21.28 18.80 20.76 19.25Q20.24 19.70 19.69 19.95Q19.15 20.20 18.61 20.29Q18.07 20.37 17.64 20.37ZM17.64 18.08L17.64 18.08Q18.08 18.08 18.42 17.93Q18.75 17.78 18.97 17.40Q19.18 17.03 19.29 16.41Q19.41 15.80 19.41 14.86L19.41 14.86L19.41 5.75Q19.41 4.79 19.29 4.15Q19.18 3.50 18.97 3.11Q18.75 2.72 18.42 2.55Q18.08 2.39 17.64 2.39L17.64 2.39Q17.18 2.39 16.84 2.55Q16.50 2.72 16.28 3.11Q16.05 3.50 15.94 4.15Q15.83 4.79 15.83 5.75L15.83 5.75L15.83 14.86Q15.83 15.80 15.94 16.41Q16.05 17.03 16.28 17.40Q16.50 17.78 16.84 17.93Q17.18 18.08 17.64 18.08ZM27.05 20.19L24.16 0.18L27.07 0.18L28.42 12.27L28.57 15.09L28.86 15.09L29.14 11.92L31.30 0.18L33.73 0.18L35.79 11.92L36.02 15.09L36.33 15.09L36.47 12.27L37.70 0.18L40.62 0.18L37.82 20.19L34.73 20.19L33.08 10.57L32.57 6.39L32.33 6.39L31.83 10.57L30.09 20.19L27.05 20.19ZM47.91 20.19L47.91 0.18L50.94 0.18L50.94 17.80L55.08 17.80L55.08 20.19L47.91 20.19ZM57 20.19L57 0.18L60.96 0.18L62.88 7.92Q63.19 9.21 63.36 10.38Q63.54 11.54 63.70 12.57L63.70 12.57L63.80 12.57Q63.96 11.54 64.14 10.38Q64.31 9.21 64.62 7.92L64.62 7.92L66.60 0.18L70.48 0.18L70.48 20.19L67.64 20.19L67.64 13.57Q67.64 12.05 67.67 10.64Q67.70 9.23 67.75 8.06Q67.79 6.88 67.85 5.98Q67.91 5.07 67.96 4.55L67.96 4.55L67.73 4.55L64.71 17.61L62.79 17.61L59.74 4.55L59.52 4.55Q59.57 5.07 59.63 5.98Q59.68 6.88 59.73 8.06Q59.78 9.23 59.81 10.64Q59.84 12.05 59.84 13.57L59.84 13.57L59.84 20.19L57 20.19ZM73.13 16.14L73.13 16.14Q73.13 15.49 73.20 14.95Q73.28 14.40 73.43 13.77L73.43 13.77L75.79 13.77L75.79 14.74Q75.79 15.55 75.88 16.17Q75.98 16.79 76.21 17.22Q76.44 17.65 76.82 17.87Q77.20 18.08 77.75 18.08L77.75 18.08Q78.62 18.08 79.08 17.61Q79.54 17.13 79.54 16.22L79.54 16.22Q79.54 15.75 79.47 15.36Q79.41 14.96 79.25 14.58Q79.09 14.19 78.82 13.76Q78.55 13.34 78.13 12.81L78.13 12.81L74.96 9.05Q74.12 7.97 73.66 6.87Q73.21 5.78 73.21 4.54L73.21 4.54Q73.21 3.54 73.52 2.71Q73.83 1.88 74.41 1.27Q75 0.67 75.86 0.33Q76.72 0 77.81 0L77.81 0Q79.14 0 80.02 0.38Q80.91 0.75 81.43 1.36Q81.96 1.97 82.18 2.72Q82.39 3.48 82.39 4.24L82.39 4.24Q82.39 4.89 82.29 5.43Q82.20 5.98 82.07 6.63L82.07 6.63L79.72 6.63L79.72 5.68Q79.72 4.09 79.27 3.24Q78.81 2.39 77.78 2.39L77.78 2.39Q76.92 2.39 76.50 2.87Q76.08 3.34 76.08 4.14L76.08 4.14Q76.08 4.56 76.14 4.90Q76.21 5.24 76.33 5.53Q76.45 5.81 76.63 6.08Q76.80 6.35 77.03 6.64L77.03 6.64L80.55 10.91Q81.52 12.16 82.03 13.32Q82.55 14.47 82.55 15.76L82.55 15.76Q82.55 16.83 82.21 17.68Q81.88 18.54 81.26 19.14Q80.64 19.73 79.76 20.06Q78.88 20.38 77.78 20.38L77.78 20.38Q76.42 20.38 75.52 20.02Q74.63 19.65 74.09 19.05Q73.56 18.46 73.34 17.70Q73.13 16.93 73.13 16.14Z" transform="translate(0, 52)"></path></svg>