<?xml version="1.0" encoding="UTF-8" standalone="no"?>
<!-- Generator: Adobe Illustrator 25.0.0, SVG Export Plug-In . SVG Version: 6.00 Build 0)  -->

<svg
   version="1.1"
   id="Layer_1"
   x="0px"
   y="0px"
   viewBox="0 0 723.59004 197.47999"
   xml:space="preserve"
   sodipodi:docname="logo_horizontal_negro.svg"
   width="723.59003"
   height="197.48"
   inkscape:version="1.1 (c68e22c387, 2021-05-23)"
   xmlns:inkscape="http://www.inkscape.org/namespaces/inkscape"
   xmlns:sodipodi="http://sodipodi.sourceforge.net/DTD/sodipodi-0.dtd"
   xmlns="http://www.w3.org/2000/svg"
   xmlns:svg="http://www.w3.org/2000/svg"><defs
   id="defs97" /><sodipodi:namedview
   id="namedview95"
   pagecolor="#ffffff"
   bordercolor="#666666"
   borderopacity="1.0"
   inkscape:pageshadow="2"
   inkscape:pageopacity="0.0"
   inkscape:pagecheckerboard="0"
   showgrid="false"
   fit-margin-top="10"
   fit-margin-bottom="10"
   fit-margin-left="10"
   fit-margin-right="10"
   inkscape:zoom="1.1174396"
   inkscape:cx="251.91519"
   inkscape:cy="98.886779"
   inkscape:window-width="1920"
   inkscape:window-height="991"
   inkscape:window-x="-9"
   inkscape:window-y="-9"
   inkscape:window-maximized="1"
   inkscape:current-layer="Layer_1" />
<style
   type="text/css"
   id="style54">
	.st0{fill:#326CE5;}
	.st1{fill:#070707;}
</style>
<g
   id="g92"
   transform="translate(-66.16,-247.14)"
   style="fill:#000000">
	<g
   id="g68"
   style="fill:#000000">
		<path
   class="st0"
   d="m 269.94,322.68 v 9.11 h 3.98 c 2.38,0 3.93,0.27 4.66,0.8 0.73,0.53 1.11,2.1 1.11,4.7 v 28.84 l -25.83,-43.46 h -34.73 v 9.11 h 3.42 c 2.52,0 4.13,0.31 4.82,0.92 0.71,0.61 1.05,2.13 1.05,4.58 v 35.22 c 0,2.48 -0.36,4.02 -1.08,4.64 -0.71,0.6 -2.3,0.91 -4.8,0.91 h -3.42 v 9.17 h 30.95 v -9.17 h -3.12 c -2.45,0 -4.02,-0.29 -4.72,-0.89 -0.71,-0.59 -1.05,-2.14 -1.05,-4.65 v -31.56 l 27.27,46.27 h 24.05 v -49.93 c 0,-2.5 0.35,-4.05 1.04,-4.64 0.71,-0.57 2.28,-0.87 4.73,-0.87 h 2.5 v -9.11 h -30.83 z"
   id="path56"
   style="fill:#000000" />
		<path
   class="st0"
   d="m 376.48,329.87 c -2.36,-2 -5.01,-3.66 -7.97,-4.98 -0.37,1.63 -1.23,3.37 -2.84,5.06 -2.2,2.32 -4.97,4.24 -8.5,5.86 -0.15,0.07 -0.31,0.13 -0.45,0.2 0.08,0.12 0.16,0.25 0.23,0.39 2.14,3.88 3.21,10.11 3.21,18.69 0,8.53 -1.07,14.69 -3.21,18.5 -2.14,3.82 -5.61,5.74 -10.36,5.74 -4.7,0 -8.13,-1.93 -10.27,-5.78 -2.14,-3.85 -3.21,-10.1 -3.21,-18.74 0,-5.46 0.44,-9.95 1.35,-13.48 -0.52,0.01 -1.04,0.03 -1.56,0.03 -2.22,0 -4.5,-0.15 -6.74,-0.41 -1.92,-0.24 -3.68,-0.88 -5.21,-1.45 -0.49,-0.17 -0.97,-0.35 -1.45,-0.51 0.35,1.57 0.68,3.17 0.91,4.81 0.44,3.2 -0.63,6.39 -3.09,9.27 -1.93,2.26 -4.1,2.73 -5.58,2.73 -0.65,0 -1.32,-0.09 -1.97,-0.27 -1.08,-0.29 -2.14,-0.6 -3.3,-0.93 l -0.49,-0.15 c -0.01,0.17 -0.01,0.36 -0.01,0.55 0,10.62 3.6,18.96 10.79,25.03 7.21,6.09 17.12,9.11 29.75,9.11 12.76,0 22.75,-3.01 29.97,-9.06 7.21,-6.05 10.82,-14.4 10.82,-25.09 -0.03,-10.66 -3.63,-19.04 -10.82,-25.12 z"
   id="path58"
   style="fill:#000000" />
		<path
   class="st0"
   d="m 468.2,322.68 v 9.11 c 2.41,0 4,0.17 4.72,0.52 0.73,0.35 1.11,0.99 1.11,1.93 0,0.31 -0.04,0.67 -0.11,1.08 -0.07,0.4 -0.17,0.84 -0.31,1.31 l -8.98,32.8 -8.69,-32.71 c -0.17,-0.59 -0.28,-1.07 -0.33,-1.43 -0.05,-0.36 -0.07,-0.72 -0.07,-1.05 0,-0.92 0.35,-1.55 1.04,-1.9 0.69,-0.36 2.08,-0.55 4.16,-0.55 h 2.3 v -9.11 h -34.62 v 9.11 c 2.89,0.07 4.94,0.57 6.13,1.53 1.2,0.96 2.05,2.82 2.56,5.61 l -8.11,30.49 -9.96,-32.71 c -0.13,-0.37 -0.24,-0.77 -0.31,-1.19 -0.07,-0.43 -0.09,-0.87 -0.09,-1.29 0,-0.88 0.32,-1.51 0.99,-1.88 0.67,-0.39 1.8,-0.57 3.4,-0.57 v -9.11 h -32.52 v 9.11 c 2.24,0.07 4.05,0.71 5.41,1.93 1.36,1.23 2.48,3.24 3.37,6.06 l 14.45,47.44 h 22.46 l 7.1,-26.26 6.89,26.26 h 22.31 l 14.6,-49.18 c 0.72,-2.32 1.65,-3.93 2.81,-4.86 1.16,-0.92 2.84,-1.39 5.05,-1.39 v -9.11 H 468.2 Z"
   id="path60"
   style="fill:#000000" />
		<path
   class="st1"
   d="m 585.43,360.31 c -0.24,3.97 -0.71,7.09 -1.39,9.34 -0.68,2.25 -1.68,4.04 -3.01,5.36 -1.05,1.07 -2.48,1.81 -4.26,2.24 -1.78,0.41 -4.86,0.63 -9.22,0.63 h -4.69 v -41.04 c 0,-2.36 0.36,-3.78 1.07,-4.28 0.72,-0.51 2.24,-0.76 4.54,-0.76 h 3.98 v -9.11 h -42.22 v 9.11 h 3.52 c 2.49,0 4.06,0.29 4.76,0.87 0.68,0.59 1.01,2.13 1.01,4.64 v 35.22 c 0,2.5 -0.35,4.06 -1.04,4.65 -0.71,0.6 -2.28,0.89 -4.73,0.89 h -3.52 v 9.17 h 66.06 v -26.91 h -10.86 z"
   id="path62"
   style="fill:#000000" />
		<path
   class="st1"
   d="m 698.91,332.62 c 0.69,-0.55 2.25,-0.83 4.66,-0.83 h 3.48 v -9.11 h -40.59 l -12.87,38.47 -11.9,-38.47 h -39.31 v 9.11 h 3.22 c 2.48,0 4.06,0.29 4.74,0.87 0.68,0.59 1.03,2.13 1.03,4.64 v 35.22 c 0,2.5 -0.36,4.06 -1.05,4.65 -0.69,0.6 -2.28,0.89 -4.72,0.89 h -3.22 v 9.17 h 31.45 v -9.17 h -2.61 c -2.44,0 -4.02,-0.29 -4.72,-0.89 -0.69,-0.59 -1.05,-2.14 -1.05,-4.65 v -39.17 l 17.07,53.87 h 16.44 l 17.97,-53.97 v 39.26 c 0,2.66 -0.37,4.25 -1.13,4.77 -0.75,0.52 -2.29,0.77 -4.64,0.77 h -2.61 v 9.17 h 38.5 v -9.17 h -3.48 c -2.38,0 -3.93,-0.27 -4.64,-0.81 -0.72,-0.55 -1.08,-2.13 -1.08,-4.73 v -35.22 c 0.01,-2.57 0.35,-4.13 1.06,-4.67 z"
   id="path64"
   style="fill:#000000" />
		<path
   class="st1"
   d="m 773.22,353.89 c -4.36,-3.4 -11.95,-6.23 -22.77,-8.53 -1.05,-0.21 -2.54,-0.52 -4.45,-0.89 -7.75,-1.47 -11.64,-3.65 -11.64,-6.53 0,-1.9 1.01,-3.52 3.05,-4.84 2.02,-1.32 4.6,-1.97 7.73,-1.97 5.34,0 9.62,1.12 12.82,3.36 3.2,2.24 5.38,5.65 6.54,10.22 h 11.79 V 322.3 h -10.06 l -1.89,3.24 c -3.54,-1.63 -7.19,-2.82 -10.98,-3.61 -3.77,-0.79 -7.85,-1.17 -12.2,-1.17 -8.58,0 -15.48,1.98 -20.7,5.95 -5.22,3.98 -7.83,9.22 -7.83,15.69 0,3.01 0.67,5.69 2.01,8.06 1.35,2.36 3.44,4.52 6.26,6.46 1.19,0.84 3.13,1.75 5.82,2.72 2.68,0.97 6.51,2.14 11.48,3.53 1.53,0.44 3.64,0.99 6.33,1.64 8.27,2.1 12.42,4.7 12.42,7.79 0,2.01 -0.96,3.62 -2.86,4.86 -1.9,1.24 -4.45,1.87 -7.61,1.87 -5.25,0 -9.79,-1.41 -13.65,-4.21 -3.86,-2.8 -6.63,-6.7 -8.3,-11.67 H 714.4 v 24.05 h 9.59 l 2.61,-3.57 c 3.78,1.76 7.59,3.06 11.43,3.92 3.85,0.87 7.85,1.29 12,1.29 9.09,0 16.32,-1.93 21.67,-5.79 5.36,-3.86 8.05,-9.06 8.05,-15.57 0.01,-5.86 -2.17,-10.49 -6.53,-13.89 z"
   id="path66"
   style="fill:#000000" />
	</g>
	<g
   id="g78"
   style="fill:#000000">
		<polygon
   class="st0"
   points="76.16,355.58 145.23,286.51 145.23,257.14 76.16,326.22 "
   id="polygon70"
   style="fill:#000000" />
		<polygon
   class="st0"
   points="105.34,373.4 105.34,373.41 76.16,402.58 76.16,426.79 105.34,397.61 145.23,357.71 145.23,333.51 "
   id="polygon72"
   style="fill:#000000" />
		<polygon
   class="st1"
   points="103.59,365.63 143.48,325.75 172.67,296.56 172.67,271.49 143.48,300.68 103.59,340.57 103.59,365.62 "
   id="polygon74"
   style="fill:#000000" />
		<polygon
   class="st1"
   points="105.34,409.55 105.34,434.62 174.42,365.54 174.42,340.48 145.23,369.67 "
   id="polygon76"
   style="fill:#000000" />
	</g>
	<g
   id="g90"
   style="fill:#000000">
		<path
   d="m 298.65,318.07 v 0.21 c -0.11,-0.07 -0.23,-0.13 -0.32,-0.21 z"
   id="path80"
   style="fill:#000000" />
		<path
   d="m 298.33,318.07 h 0.32 v 0.22 c -0.11,-0.07 -0.22,-0.14 -0.32,-0.22 z"
   id="path82"
   style="fill:#000000" />
		<path
   d="m 298.33,318.07 h 0.32 v 0.21 c -0.1,-0.06 -0.22,-0.13 -0.32,-0.21 z"
   id="path84"
   style="fill:#000000" />
		<path
   d="m 318.93,317.36 c 2.79,-1.82 5.46,-3.62 8.18,-5.33 3.17,-2 6.38,-3.93 9.57,-5.88 0.95,-0.58 1.78,-1.23 1.45,-2.54 -0.23,-0.89 -0.78,-1.41 -1.72,-1.16 -0.79,0.21 -1.6,0.5 -2.29,0.93 -5.58,3.55 -11.09,7.19 -16.7,10.7 -4.39,2.75 -5.76,6.77 -5.21,11.66 0.06,0.55 0.5,1.18 0.95,1.53 1.76,1.38 2.18,3.07 1.29,5.15 -0.24,0.56 -0.23,1.31 -0.11,1.93 0.68,3.34 1.62,6.63 2.09,10 0.31,2.25 -0.66,4.36 -2.17,6.12 -0.91,1.06 -2.03,1.61 -3.45,1.21 -1.59,-0.44 -3.18,-0.9 -5.03,-1.43 0.59,-1.06 1.01,-1.9 1.51,-2.7 2.31,-3.69 3.21,-7.75 2.99,-12.05 -0.03,-0.55 -0.51,-1.27 -0.99,-1.56 -2.23,-1.34 -2.74,-3.81 -1.17,-5.93 0.32,-0.43 0.54,-1.07 0.5,-1.6 -0.22,-3.31 -0.22,-6.57 1.39,-9.82 -0.81,-0.15 -1.51,-0.33 -2.21,-0.41 -1.74,-0.2 -3.5,-0.33 -5.24,-0.56 -0.98,-0.13 -2.22,-0.14 -2.47,-1.39 -0.25,-1.26 0.9,-1.71 1.76,-2.21 3.12,-1.81 6.26,-3.57 9.39,-5.37 7.21,-4.15 14.43,-8.29 21.61,-12.48 1.27,-0.74 2.55,-0.66 3.89,-0.5 10.55,1.31 21.09,2.62 31.64,3.92 1.15,0.14 2.31,0.19 3.45,0.36 0.9,0.14 1.92,0.24 2.16,1.4 0.24,1.18 -0.69,1.63 -1.48,2.08 -4.81,2.76 -9.64,5.5 -14.45,8.25 -5.65,3.24 -11.29,6.53 -16.96,9.73 -0.72,0.4 -1.69,0.66 -2.5,0.57 -6.39,-0.71 -12.76,-1.52 -19.14,-2.3 -0.11,-0.01 -0.22,-0.13 -0.53,-0.32 z"
   id="path86"
   style="fill:#000000" />
		<path
   d="m 316,321.15 c 3.33,0.45 6.38,0.89 9.44,1.26 4.22,0.52 8.44,0.97 12.66,1.49 1.96,0.24 3.69,-0.2 5.4,-1.21 5.48,-3.26 11.01,-6.42 16.52,-9.62 0.79,-0.46 1.61,-0.88 2.56,-1.39 0.15,0.53 0.29,0.9 0.36,1.29 0.55,2.67 1.01,5.37 1.64,8.02 0.58,2.46 -0.13,4.45 -1.8,6.21 -2.07,2.18 -4.58,3.74 -7.28,4.98 -9.18,4.24 -18.8,6.03 -28.86,4.79 -2.11,-0.26 -4.13,-1.22 -6.19,-1.88 -0.81,-0.26 -0.99,-0.71 -0.67,-1.58 1.17,-3.16 0.08,-5.97 -2.83,-7.66 -0.28,-0.16 -0.61,-0.49 -0.64,-0.77 -0.15,-1.23 -0.2,-2.46 -0.31,-3.93 z"
   id="path88"
   style="fill:#000000" />
	</g>
</g>
</svg>
