<?xml version="1.0" encoding="UTF-8" standalone="no"?>
<!-- Created with Inkscape (http://www.inkscape.org/) -->

<svg
   version="1.1"
   id="svg2"
   width="1698.1118"
   height="270"
   viewBox="0 0 1698.1118 270"
   sodipodi:docname="logo_horizontal_blanco.svg"
   inkscape:version="1.1 (c68e22c387, 2021-05-23)"
   xmlns:inkscape="http://www.inkscape.org/namespaces/inkscape"
   xmlns:sodipodi="http://sodipodi.sourceforge.net/DTD/sodipodi-0.dtd"
   xmlns="http://www.w3.org/2000/svg"
   xmlns:svg="http://www.w3.org/2000/svg">
  <defs
     id="defs6">
    <rect
       x="1575.0952"
       y="-275.0166"
       width="2987.6804"
       height="825.04987"
       id="rect24373" />
  </defs>
  <sodipodi:namedview
     id="namedview4"
     pagecolor="#ffffff"
     bordercolor="#000000"
     borderopacity="0.25"
     inkscape:showpageshadow="2"
     inkscape:pageopacity="0.0"
     inkscape:pagecheckerboard="0"
     inkscape:deskcolor="#d1d1d1"
     inkscape:pageshadow="2"
     showgrid="false"
     inkscape:zoom="0.20820158"
     inkscape:cx="127.2805"
     inkscape:cy="151.29568"
     inkscape:window-width="1920"
     inkscape:window-height="991"
     inkscape:window-x="-9"
     inkscape:window-y="-9"
     inkscape:window-maximized="1"
     inkscape:current-layer="g8"
     showguides="false"
     lock-margins="true"
     fit-margin-top="10"
     fit-margin-left="10"
     fit-margin-right="10"
     fit-margin-bottom="10" />
  <g
     id="g8"
     inkscape:groupmode="layer"
     inkscape:label="ink_ext_XXXXXX"
     transform="matrix(1.3333333,0,0,-1.3333333,-58.0712,1525.5605)">
    <path
       d="m 122.55238,1135.1223 -70.572057,-47.1299 70.572057,-47.1285 70.57158,47.1285 -70.57158,47.1299"
       style="fill:#2d5288;fill-opacity:1;fill-rule:nonzero;stroke:none;stroke-width:0.0259349"
       id="path14" />
    <path
       d="m 122.55238,1135.1223 -70.572057,-47.1299 70.572057,-47.1285 70.57158,47.1285 z"
       style="fill:#ffffff;fill-opacity:1;stroke:#ffffff;stroke-width:3.56459;stroke-linecap:round;stroke-linejoin:round;stroke-miterlimit:10;stroke-dasharray:none;stroke-opacity:1"
       id="path16" />
    <path
       d="m 174.46048,1063.6186 v -21.6536 l -51.84745,-34.6241 h -0.0606 l -51.847218,34.6241 v 21.6536"
       style="fill:none;stroke:#ffffff;stroke-width:3.89023;stroke-linecap:round;stroke-linejoin:round;stroke-miterlimit:10;stroke-dasharray:none;stroke-opacity:1"
       id="path18" />
    <path
       d="m 185.33789,1017.0362 v 58.5031"
       style="fill:none;stroke:#ffffff;stroke-width:3.56459;stroke-linecap:round;stroke-linejoin:round;stroke-miterlimit:10;stroke-dasharray:none;stroke-opacity:1"
       id="path22" />
    <path
       d="m 177.55181,1007.3409 7.78608,9.6953 7.78607,-9.6953 z"
       style="fill:#ffffff;fill-opacity:1;stroke:#ffffff;stroke-width:3.37152;stroke-linecap:round;stroke-linejoin:round;stroke-miterlimit:10;stroke-dasharray:none;stroke-opacity:1"
       id="path24" />
    <path
       d="m 174.46048,951.34093 v 21.6536 l -51.84745,34.62417 h -0.0606 L 70.705162,972.99453 v -21.6536"
       style="fill:none;stroke:#ffffff;stroke-width:3.89023;stroke-linecap:round;stroke-linejoin:round;stroke-miterlimit:10;stroke-dasharray:none;stroke-opacity:1"
       id="path295" />
    <rect
       style="fill:#ffffff;fill-opacity:1;fill-rule:evenodd;stroke-width:0.140898"
       id="rect319"
       width="107.24582"
       height="6.9076371"
       x="68.957748"
       y="-956.078"
       transform="scale(1,-1)" />
    <path
       id="path18492"
       style="fill:#ffffff;fill-opacity:1;stroke:none;stroke-width:3.89023;stroke-linecap:round;stroke-linejoin:round;stroke-miterlimit:10;stroke-dasharray:none;stroke-opacity:1"
       d="m 106.84605,1021.7368 15.70627,-10.489 h 0.0606 l 15.70662,10.489 z" />
    <path
       d="m 171.72998,957.6227 v 4.93259 l -49.09399,7.88721 h -0.0574 l -49.093772,-7.88721 v -4.93259"
       style="fill:#ffffff;fill-opacity:1;stroke:none;stroke-width:1.80674;stroke-linecap:round;stroke-linejoin:round;stroke-miterlimit:10;stroke-dasharray:none;stroke-opacity:1"
       id="path18671" />
    <path
       d="m 340.13948,1092.7953 q 24.24998,0 38.49991,-16.2499 14.25,-16 14.25,-43.5 v -81.74993 h -48.99991 v 75.24993 q 0,12 -6.25005,18.75 -6.24997,7 -16.74997,7 -10.99995,0 -17.25,-7 -6.24998,-6.75 -6.24998,-18.75 v -75.24993 h -48.9999 v 140.24983 h 48.9999 v -19.9999 q 6.50003,9.5 17.49998,15.2499 11.00002,6 25.25002,6 z"
       style="font-weight:800;font-size:333.333px;line-height:1.25;font-family:Poppins;-inkscape-font-specification:'Poppins Ultra-Bold';white-space:pre;stroke-width:0.75;fill:#ffffff;fill-opacity:1"
       id="path4715" />
    <path
       d="m 485.13901,949.54547 q -20.99992,0 -37.7499,8.75 -16.5,8.74999 -26.00002,24.99997 -9.49995,16.24999 -9.49995,38.24996 0,21.75 9.49995,38 9.75,16.25 26.25,24.9999 16.74997,8.75 37.74997,8.75 20.99993,0 37.49993,-8.75 16.74997,-8.7499 26.25,-24.9999 9.75,-16.25 9.75,-38 0,-21.74997 -9.75,-38.24996 -9.50003,-16.24998 -26.25,-24.99997 -16.74998,-8.75 -37.74998,-8.75 z m 0,42.49996 q 10.25003,0 17.00003,7.5 6.99997,7.74997 6.99997,21.99997 0,14.25 -6.99997,21.75 -6.75,7.5 -16.74998,7.5 -9.99997,0 -16.74997,-7.5 -6.75,-7.5 -6.75,-21.75 0,-14.5 6.49995,-21.99997 6.50002,-7.5 16.74997,-7.5 z"
       style="font-weight:800;font-size:333.333px;line-height:1.25;font-family:Poppins;-inkscape-font-specification:'Poppins Ultra-Bold';white-space:pre;stroke-width:0.75;fill:#ffffff;fill-opacity:1"
       id="path4717" />
    <path
       d="M 786.1387,1091.5453 750.38875,951.29547 h -54.99998 l -19.5,84.99993 -20.24993,-84.99993 h -54.75 l -35.49997,140.24983 h 48.75 l 15.75,-92.99987 20.74995,92.99987 h 52.49992 l 21.50003,-93.24987 15.49995,93.24987 z"
       style="font-weight:800;font-size:333.333px;line-height:1.25;font-family:Poppins;-inkscape-font-specification:'Poppins Ultra-Bold';white-space:pre;stroke-width:0.75;fill:#ffffff;fill-opacity:1"
       id="path4719" />
    <path
       d="M 896.88812,1136.2953 V 951.29547 h -48.99997 v 184.99983 z"
       style="font-weight:800;font-size:333.333px;line-height:1.25;font-family:Poppins;-inkscape-font-specification:'Poppins Ultra-Bold';white-space:pre;stroke-width:0.75;fill:#ffffff;fill-opacity:1"
       id="path4721" />
    <path
       d="m 1108.1376,1092.7953 q 26.5,0 41.4999,-15.9999 15.2501,-16 15.2501,-43.75 v -81.74993 h -49 v 75.24993 q 0,11.25 -6.25,17.5 -6.25,6.25 -17,6.25 -10.75,0 -16.9999,-6.25 -6.2501,-6.25 -6.2501,-17.5 v -75.24993 h -48.9999 v 75.24993 q 0,11.25 -6.25,17.5 -6,6.25 -16.75002,6.25 -10.99995,0 -17.24993,-6.25 -6.25005,-6.25 -6.25005,-17.5 v -75.24993 h -48.9999 v 140.24983 h 48.9999 v -18.4999 q 6.50003,8.9999 16.75005,14.2499 10.49995,5.5 23.99995,5.5 15.5,0 27.5,-6.75 12.25,-6.7499 19.25,-18.9999 7.5,11.5 19.7499,18.4999 12.25,7.25 27,7.25 z"
       style="font-weight:800;font-size:333.333px;line-height:1.25;font-family:Poppins;-inkscape-font-specification:'Poppins Ultra-Bold';white-space:pre;stroke-width:0.75;fill:#ffffff;fill-opacity:1"
       id="path4723" />
    <path
       d="m 1251.3874,949.54547 q -19,0 -34,6.25 -14.75,6.49999 -23.4999,17.49998 -8.5001,11.24999 -9.5001,25.24998 h 47.5 q 1,-6.75 6.25,-10.49999 5.25,-3.75 13,-3.75 6,0 9.5,2.5 3.4999,2.5 3.4999,6.49999 0,5.25 -5.7499,7.74997 -5.75,2.5 -19,5.5 -15,3 -25,6.75 -9.9999,3.75 -17.4999,12.25 -7.2501,8.5 -7.2501,23 0,12.5 6.75,22.5 6.75,10.2499 19.75,16.2499 13.25,6 31.75,6 27.4999,0 43.2499,-13.5 15.75,-13.4999 18.25,-35.4999 h -44.2499 q -1.25,6.75 -6,10.25 -4.5,3.75 -12.25,3.75 -6,0 -9.25,-2.25 -3,-2.25 -3,-6.25 0,-5 5.75,-7.75 5.75,-2.5 18.4999,-5.25 15.2501,-3.25 25.2501,-7.25 10.2499,-4 17.7499,-13 7.75,-8.75 7.75,-23.99997 0,-12.24999 -7.25,-21.99998 -6.9999,-9.74999 -20.25,-15.49998 -12.9999,-5.5 -30.7499,-5.5 z"
       style="font-weight:800;font-size:333.333px;line-height:1.25;font-family:Poppins;-inkscape-font-specification:'Poppins Ultra-Bold';white-space:pre;stroke-width:0.75;fill:#ffffff;fill-opacity:1"
       id="path4725" />
  </g>
</svg>
