<?xml version="1.0" encoding="UTF-8" standalone="no"?>
<!-- Created with Inkscape (http://www.inkscape.org/) -->

<svg
   width="14.476089mm"
   height="11.6835mm"
   viewBox="0 0 14.476088 11.6835"
   version="1.1"
   id="svg5"
   inkscape:version="1.1 (c68e22c387, 2021-05-23)"
   sodipodi:docname="icon_blanco.svg"
   xmlns:inkscape="http://www.inkscape.org/namespaces/inkscape"
   xmlns:sodipodi="http://sodipodi.sourceforge.net/DTD/sodipodi-0.dtd"
   xmlns="http://www.w3.org/2000/svg"
   xmlns:svg="http://www.w3.org/2000/svg">
  <sodipodi:namedview
     id="namedview7"
     pagecolor="#ffffff"
     bordercolor="#666666"
     borderopacity="1.0"
     inkscape:pageshadow="2"
     inkscape:pageopacity="0.0"
     inkscape:pagecheckerboard="0"
     inkscape:document-units="mm"
     showgrid="false"
     fit-margin-top="2"
     fit-margin-left="2"
     fit-margin-right="2"
     fit-margin-bottom="2"
     inkscape:zoom="0.70737049"
     inkscape:cx="201.4503"
     inkscape:cy="198.62293"
     inkscape:window-width="1366"
     inkscape:window-height="745"
     inkscape:window-x="-8"
     inkscape:window-y="-8"
     inkscape:window-maximized="1"
     inkscape:current-layer="layer1" />
  <defs
     id="defs2" />
  <g
     inkscape:label="Capa 1"
     inkscape:groupmode="layer"
     id="layer1"
     transform="translate(-15.721073,-96.212777)">
    <g
       fill="#ead017"
       color="#ead017"
       transform="matrix(0.11641667,0,0,0.11641667,17.137578,96.227873)"
       id="g21"
       style="fill:#ffffff">
      <svg
         width="100"
         height="100"
         x="0.0"
         y="0.0"
         viewBox="0 0 100 100"
         version="1.1"
         id="svg19"
         style="fill:#ffffff">
        <title
           id="title9" />
        <desc
           id="desc11" />
        <g
           id="g17"
           style="fill:#ffffff">
          <g
             id="g15"
             style="fill:#ffffff">
            <path
               d="m 75.9,69.7 -25.5,9.8 v 0 L 25.8,69.7 v 0 V 48 c 0,-0.6 -0.3,-1.2 -0.9,-1.5 L 7.5,36.9 7.4,39.9 51.1,20.2 h -1.4 l 41.9,19.2 v 0 28.7 c 0,0.9 0.7,1.7 1.7,1.7 0.9,0 1.7,-0.7 1.7,-1.7 V 38.4 c 0,-0.7 -0.4,-1.2 -1,-1.5 L 51.1,17.2 C 50.7,17 50.2,17 49.7,17.2 L 6,36.9 c -1.3,0.6 -1.3,2.3 -0.1,3 L 23.4,49.5 22.5,48 v 22.8 c 0,0.7 0.4,1.3 1.1,1.6 l 26.3,10.5 c 0.4,0.2 0.8,0.2 1.2,0 L 78.2,72.4 c 0.6,-0.2 1.1,-0.9 1.1,-1.6 V 48 c 0,-1.2 -1.2,-2 -2.3,-1.6 L 50.5,56.8 v 0 L 36.7,50.9 c -0.8,-0.4 -1.8,0 -2.2,0.9 -0.4,0.9 0,1.8 0.9,2.2 l 14.4,6.1 c 0.4,0.2 0.9,0.2 1.3,0 L 76,50.9"
               id="path13"
               style="fill:#ffffff" />
          </g>
        </g>
      </svg>
    </g>
  </g>
</svg>
