<?xml version="1.0" encoding="UTF-8" standalone="no"?>
<svg
   width="16"
   height="16"
   fill="currentColor"
   class="bi bi-bar-chart"
   viewBox="0 0 16 16"
   version="1.1"
   id="svg19"
   sodipodi:docname="curso-level1.svg"
   inkscape:version="1.1 (c68e22c387, 2021-05-23)"
   xmlns:inkscape="http://www.inkscape.org/namespaces/inkscape"
   xmlns:sodipodi="http://sodipodi.sourceforge.net/DTD/sodipodi-0.dtd"
   xmlns="http://www.w3.org/2000/svg"
   xmlns:svg="http://www.w3.org/2000/svg">
  <defs
     id="defs23" />
  <sodipodi:namedview
     id="namedview21"
     pagecolor="#ffffff"
     bordercolor="#666666"
     borderopacity="1.0"
     inkscape:pageshadow="2"
     inkscape:pageopacity="0.0"
     inkscape:pagecheckerboard="0"
     showgrid="false"
     inkscape:zoom="33.5625"
     inkscape:cx="7.9851024"
     inkscape:cy="8"
     inkscape:window-width="1366"
     inkscape:window-height="745"
     inkscape:window-x="-8"
     inkscape:window-y="-8"
     inkscape:window-maximized="1"
     inkscape:current-layer="svg19" />
  <path
     d="M4 11H2v3h2v-3zm5-4H7v7h2V7zm5-5v12h-2V2h2zm-2-1a1 1 0 0 0-1 1v12a1 1 0 0 0 1 1h2a1 1 0 0 0 1-1V2a1 1 0 0 0-1-1h-2zM6 7a1 1 0 0 1 1-1h2a1 1 0 0 1 1 1v7a1 1 0 0 1-1 1H7a1 1 0 0 1-1-1V7zm-5 4a1 1 0 0 1 1-1h2a1 1 0 0 1 1 1v3a1 1 0 0 1-1 1H2a1 1 0 0 1-1-1v-3z"
     id="path17" />
  <rect
     style="fill:#000000;fill-opacity:1;stroke-width:0.647822"
     id="rect5858"
     width="2.8379889"
     height="4.2987318"
     x="1.5363127"
     y="10.347537" />
</svg>
